{"glyphs":{"0":{"ha":722,"x_min":0,"x_max":0,"o":"m 26 482 b 361 -19 26 85 131 -19 b 696 482 592 -19 696 85 b 361 983 696 879 592 983 b 26 482 131 983 26 879 z m 285 644 b 361 822 285 785 307 822 b 438 644 415 822 438 785 l 438 319 b 361 142 438 179 415 142 b 285 319 307 142 285 179 z "},"1":{"ha":722,"x_min":0,"x_max":0,"o":"m 513 0 l 513 983 l 326 983 b 68 831 293 864 226 832 l 68 669 l 254 669 l 254 0 z "},"2":{"ha":722,"x_min":0,"x_max":0,"o":"m 276 650 l 276 692 b 349 822 276 803 313 822 b 415 713 389 822 415 796 b 346 551 415 639 396 601 l 174 376 b 26 0 61 261 26 136 l 674 0 l 674 194 l 335 194 b 399 275 344 224 376 253 l 551 424 b 674 715 625 497 674 582 b 357 983 674 863 615 983 b 96 892 224 983 143 950 b 35 650 49 833 36 751 z "},"3":{"ha":722,"x_min":0,"x_max":0,"o":"m 271 686 b 340 822 271 790 290 822 b 406 717 385 822 406 797 b 293 578 406 603 369 578 l 256 578 l 256 417 l 321 417 b 415 294 386 417 415 392 b 344 142 415 171 404 142 b 286 178 317 142 297 153 b 268 294 275 203 268 239 l 26 294 b 353 -19 26 57 129 -19 b 674 297 565 -19 674 76 b 518 513 674 403 635 492 l 518 515 b 656 711 621 539 656 631 b 346 983 656 885 588 983 b 118 911 246 983 169 960 b 38 686 67 864 40 789 z "},"4":{"ha":722,"x_min":0,"x_max":0,"o":"m 217 369 l 378 697 l 381 697 l 381 369 z m 22 183 l 372 183 l 372 0 l 614 0 l 614 183 l 700 183 l 700 369 l 614 369 l 614 964 l 333 964 l 22 378 z "},"5":{"ha":722,"x_min":0,"x_max":0,"o":"m 35 418 l 268 418 b 339 501 268 476 296 501 b 413 353 386 501 413 463 b 339 142 413 164 389 142 b 268 261 294 142 268 168 l 268 294 l 26 294 l 26 263 b 349 -19 26 85 121 -19 b 671 364 593 -19 671 108 b 425 676 671 574 583 676 b 243 604 351 676 290 649 l 254 769 l 628 769 l 628 964 l 57 964 z "},"6":{"ha":722,"x_min":0,"x_max":0,"o":"m 676 731 b 365 983 675 861 619 983 b 26 508 72 983 26 811 l 26 399 b 367 -19 26 78 142 -19 b 696 351 578 -19 696 85 b 461 650 696 582 601 650 b 296 572 386 650 318 619 l 293 572 l 293 729 b 364 822 293 792 326 822 b 415 803 388 822 404 817 b 435 731 428 788 433 764 z m 293 303 b 365 464 293 429 317 464 b 438 303 419 464 438 429 b 365 142 438 176 414 142 b 293 303 311 142 293 176 z "},"7":{"ha":722,"x_min":0,"x_max":0,"o":"m 35 753 l 431 753 b 153 0 268 531 178 253 l 419 0 b 676 771 439 247 539 557 l 676 964 l 35 964 z "},"8":{"ha":722,"x_min":0,"x_max":0,"o":"m 361 -19 b 696 292 572 -19 696 49 b 532 518 696 401 650 497 l 532 521 b 678 719 647 549 678 633 b 361 983 678 876 589 983 b 44 719 133 983 44 876 b 190 521 44 633 75 549 l 190 518 b 26 292 82 504 26 411 b 361 -19 26 49 151 -19 z m 294 704 b 361 822 294 800 325 822 b 428 704 397 822 428 800 b 361 585 428 607 397 585 b 294 704 325 585 294 607 z m 285 288 b 361 432 285 403 314 432 b 438 288 408 432 438 403 b 361 142 438 171 408 142 b 285 288 314 142 285 171 z "},"9":{"ha":722,"x_min":0,"x_max":0,"o":"m 46 233 b 357 -19 47 103 103 -19 b 696 456 650 -19 696 153 l 696 564 b 356 983 696 885 581 983 b 26 613 144 983 26 879 b 261 314 26 382 121 314 b 426 390 336 314 404 344 l 429 390 l 429 233 b 358 142 429 172 396 142 b 307 161 335 142 318 147 b 288 233 294 176 289 200 z m 285 661 b 357 822 285 788 308 822 b 429 661 411 822 429 788 b 357 500 429 535 406 500 b 285 661 303 500 285 535 z "}," ":{"ha":361,"x_min":0,"x_max":0,"o":""}," ":{"ha":361,"x_min":0,"x_max":0,"o":""},"!":{"ha":436,"x_min":0,"x_max":0,"o":"m 103 0 l 336 0 l 336 219 l 103 219 z m 124 288 l 310 288 l 339 660 l 339 992 l 97 992 l 97 660 z "},"\"":{"ha":668,"x_min":0,"x_max":0,"o":"m 397 472 l 592 472 l 592 992 l 397 992 z m 76 472 l 271 472 l 271 992 l 76 992 z "},"#":{"ha":722,"x_min":0,"x_max":0,"o":"m 308 563 l 433 563 l 413 401 l 289 401 z m 363 0 l 515 0 l 546 240 l 668 240 l 668 401 l 565 401 l 586 563 l 708 563 l 708 724 l 606 724 l 636 964 l 483 964 l 453 724 l 329 724 l 360 964 l 207 964 l 176 724 l 54 724 l 54 563 l 156 563 l 136 401 l 14 401 l 14 240 l 115 240 l 85 0 l 238 0 l 268 240 l 393 240 z "},"$":{"ha":722,"x_min":0,"x_max":0,"o":"m 286 -144 l 414 -144 l 414 -19 b 704 278 603 0 704 90 b 282 725 704 636 282 528 b 363 811 282 768 307 811 b 436 707 413 811 436 763 l 436 686 l 678 686 b 414 983 678 875 599 965 l 414 1064 l 286 1064 l 286 983 b 32 682 115 956 32 854 b 438 243 32 340 438 435 b 354 153 438 193 407 153 b 268 263 303 153 268 182 l 268 289 l 18 289 l 18 251 b 286 -19 18 75 111 0 z "},"%":{"ha":1081,"x_min":0,"x_max":0,"o":"m 790 247 b 839 403 790 375 799 403 b 888 247 879 403 888 375 b 839 92 888 119 879 92 b 790 247 799 92 790 119 z m 243 -19 l 396 -19 l 836 983 l 683 983 z m 193 717 b 242 872 193 844 201 872 b 290 717 282 872 290 844 b 242 561 290 589 282 561 b 193 717 201 561 193 589 z m 621 247 b 839 -19 621 54 675 -19 b 1057 247 1003 -19 1057 54 b 839 514 1057 440 1003 514 b 621 247 675 514 621 440 z m 24 717 b 242 450 24 524 78 450 b 460 717 406 450 460 524 b 242 983 460 910 406 983 b 24 717 78 983 24 910 z "},"&":{"ha":849,"x_min":0,"x_max":0,"o":"m 733 186 b 850 483 813 264 844 372 l 633 483 b 600 367 631 440 621 400 l 488 518 b 660 772 596 588 660 676 b 376 1003 660 910 549 1003 b 96 772 207 1003 96 910 b 190 547 96 697 140 615 b 4 260 64 479 4 374 b 308 -19 4 74 143 -19 b 549 58 413 -19 475 15 l 592 0 l 867 0 z m 304 789 b 378 858 304 829 335 858 b 451 789 421 858 451 829 b 369 667 451 760 431 722 b 304 789 324 725 304 760 z m 439 208 b 353 175 418 192 382 175 b 246 288 299 175 246 224 b 307 388 246 317 267 357 z "},"’":{"ha":361,"x_min":0,"x_max":0,"o":"m 64 725 l 153 725 l 153 708 b 64 592 153 635 131 599 l 64 472 b 297 742 228 475 297 563 l 297 992 l 64 992 z "},"(":{"ha":436,"x_min":0,"x_max":0,"o":"m 442 -256 b 275 368 324 -60 275 149 b 442 992 275 588 324 796 l 239 992 b 42 368 119 804 42 594 b 239 -256 42 142 119 -68 z "},")":{"ha":436,"x_min":0,"x_max":0,"o":"m -6 992 b 161 368 113 796 161 588 b -6 -256 161 149 113 -60 l 197 -256 b 394 368 317 -68 394 142 b 197 992 394 594 317 804 z "},"*":{"ha":564,"x_min":0,"x_max":0,"o":"m 386 447 l 497 528 l 392 676 l 569 733 l 526 863 l 350 806 l 350 992 l 214 992 l 214 806 l 38 863 l -6 733 l 172 676 l 67 528 l 178 447 l 282 597 z "},"+":{"ha":833,"x_min":0,"x_max":0,"o":"m 319 449 l 65 449 l 65 254 l 319 254 l 319 0 l 514 0 l 514 254 l 768 254 l 768 449 l 514 449 l 514 703 l 319 703 z "},",":{"ha":361,"x_min":0,"x_max":0,"o":"m 64 8 l 153 8 l 153 -8 b 64 -125 153 -82 131 -118 l 64 -244 b 297 25 228 -242 297 -154 l 297 275 l 64 275 z "},"-":{"ha":511,"x_min":0,"x_max":0,"o":"m 39 296 l 472 296 l 472 507 l 39 507 z "},"­":{"ha":511,"x_min":0,"x_max":0,"o":"m 39 296 l 472 296 l 472 507 l 39 507 z "},".":{"ha":361,"x_min":0,"x_max":0,"o":"m 64 0 l 297 0 l 297 275 l 64 275 z "},"/":{"ha":463,"x_min":0,"x_max":0,"o":"m -31 -19 l 178 -19 l 493 1011 l 285 1011 z "},":":{"ha":361,"x_min":0,"x_max":0,"o":"m 64 476 l 297 476 l 297 751 l 64 751 z m 64 0 l 297 0 l 297 275 l 64 275 z "},";":{"ha":361,"x_min":0,"x_max":0,"o":"m 64 8 l 153 8 l 153 -8 b 64 -125 153 -82 131 -118 l 64 -244 b 297 25 228 -242 297 -154 l 297 275 l 64 275 z m 64 476 l 297 476 l 297 751 l 64 751 z "},"<":{"ha":833,"x_min":0,"x_max":0,"o":"m 65 264 l 768 -25 l 768 161 l 299 351 l 768 542 l 768 728 l 65 439 z "},"=":{"ha":833,"x_min":0,"x_max":0,"o":"m 65 410 l 768 410 l 768 604 l 65 604 z m 65 99 l 768 99 l 768 293 l 65 293 z "},">":{"ha":833,"x_min":0,"x_max":0,"o":"m 65 -25 l 768 264 l 768 439 l 65 728 l 65 542 l 535 351 l 65 161 z "},"?":{"ha":694,"x_min":0,"x_max":0,"o":"m 278 678 b 346 850 278 826 303 850 b 408 760 388 850 408 814 b 368 638 408 726 406 679 l 286 544 b 226 326 240 492 226 431 l 226 288 l 451 288 b 483 424 451 346 458 394 l 585 539 b 650 736 633 593 650 661 b 356 1011 650 903 557 1011 b 124 936 254 1011 176 989 b 44 678 72 885 44 800 z m 222 0 l 456 0 l 456 219 l 222 219 z "},"@":{"ha":1111,"x_min":0,"x_max":0,"o":"m 436 481 b 568 622 436 549 494 622 b 678 513 635 622 678 576 b 536 371 678 438 621 371 b 436 481 475 371 436 421 z m 735 742 l 724 690 b 549 775 678 750 618 775 b 267 458 379 775 267 621 b 483 218 267 315 368 218 b 631 279 546 218 599 242 l 636 279 b 717 218 642 240 675 218 b 1071 593 865 218 1071 358 b 556 1011 1071 850 828 1011 b 40 496 271 1011 40 781 b 556 -19 40 211 271 -19 b 1019 190 778 -19 921 54 l 867 190 b 600 108 797 139 706 108 b 193 494 361 108 193 253 b 576 883 193 722 343 883 b 943 572 789 883 943 771 b 821 354 943 417 868 354 b 797 385 804 354 797 364 b 807 449 797 397 803 428 l 863 742 z "},"A":{"ha":772,"x_min":0,"x_max":0,"o":"m -18 0 l 257 0 l 283 174 l 489 174 l 515 0 l 790 0 l 549 992 l 224 992 z m 458 368 l 314 368 l 385 789 l 388 789 z "},"B":{"ha":797,"x_min":0,"x_max":0,"o":"m 69 0 l 460 0 b 758 293 675 0 758 121 b 575 519 758 396 706 507 l 575 522 b 731 744 685 544 731 639 b 460 992 731 893 644 992 l 69 992 z m 328 806 l 390 806 b 472 703 443 806 472 758 b 390 603 472 650 443 603 l 328 603 z m 328 428 l 400 428 b 492 308 447 428 492 385 b 400 186 492 228 447 186 l 328 186 z "},"C":{"ha":746,"x_min":0,"x_max":0,"o":"m 457 635 l 707 635 l 707 697 b 386 1011 707 889 619 1011 b 32 496 118 1011 32 875 b 386 -19 32 126 96 -19 b 714 325 551 -19 714 47 l 714 399 l 464 399 b 386 156 464 211 450 156 b 299 496 307 156 299 228 b 386 836 299 764 307 836 b 457 690 436 836 457 803 z "},"D":{"ha":797,"x_min":0,"x_max":0,"o":"m 319 806 l 371 806 b 483 496 471 806 483 764 b 371 186 483 228 471 186 l 319 186 z m 61 0 l 436 0 b 750 496 735 0 750 236 b 436 992 750 756 735 992 l 61 992 z "},"E":{"ha":694,"x_min":0,"x_max":0,"o":"m 61 0 l 661 0 l 661 211 l 319 211 l 319 408 l 628 408 l 628 611 l 319 611 l 319 781 l 649 781 l 649 992 l 61 992 z "},"F":{"ha":668,"x_min":0,"x_max":0,"o":"m 61 0 l 319 0 l 319 408 l 628 408 l 628 611 l 319 611 l 319 781 l 649 781 l 649 992 l 61 992 z "},"G":{"ha":772,"x_min":0,"x_max":0,"o":"m 394 364 l 486 364 b 399 156 485 190 453 156 b 311 496 319 156 311 228 b 404 836 311 764 319 836 b 464 793 435 836 454 821 b 478 678 474 767 478 728 l 728 678 b 414 1011 728 918 597 1011 b 44 496 108 1011 44 828 b 331 -19 44 168 68 -19 b 544 88 418 -19 510 3 l 547 88 l 553 0 l 728 0 l 728 539 l 394 539 z "},"H":{"ha":797,"x_min":0,"x_max":0,"o":"m 61 0 l 319 0 l 319 408 l 478 408 l 478 0 l 736 0 l 736 992 l 478 992 l 478 628 l 319 628 l 319 992 l 61 992 z "},"I":{"ha":361,"x_min":0,"x_max":0,"o":"m 51 0 l 310 0 l 310 992 l 51 992 z "},"J":{"ha":668,"x_min":0,"x_max":0,"o":"m 368 992 l 368 274 b 301 156 368 179 340 156 b 235 274 263 156 235 179 l 235 322 l 1 322 l 1 301 b 303 -19 1 94 86 -19 b 626 310 515 -19 626 71 l 626 992 z "},"K":{"ha":772,"x_min":0,"x_max":0,"o":"m 51 0 l 310 0 l 310 263 l 364 346 l 515 0 l 810 0 l 529 558 l 779 992 l 504 992 l 313 611 l 310 611 l 310 992 l 51 992 z "},"L":{"ha":643,"x_min":0,"x_max":0,"o":"m 61 0 l 638 0 l 638 211 l 319 211 l 319 992 l 61 992 z "},"M":{"ha":1053,"x_min":0,"x_max":0,"o":"m 51 0 l 293 0 l 293 739 l 296 739 l 433 0 l 619 0 l 757 739 l 760 739 l 760 0 l 1001 0 l 1001 992 l 632 992 l 528 404 l 525 404 l 421 992 l 51 992 z "},"N":{"ha":822,"x_min":0,"x_max":0,"o":"m 61 0 l 303 0 l 303 613 l 306 613 l 478 0 l 761 0 l 761 992 l 519 992 l 519 381 l 517 381 l 350 992 l 61 992 z "},"O":{"ha":772,"x_min":0,"x_max":0,"o":"m 32 496 b 386 -19 32 125 122 -19 b 740 496 650 -19 740 125 b 386 1011 740 867 650 1011 b 32 496 122 1011 32 867 z m 299 496 b 386 836 299 764 307 836 b 474 496 465 836 474 764 b 386 156 474 228 465 156 b 299 496 307 156 299 228 z "},"P":{"ha":746,"x_min":0,"x_max":0,"o":"m 51 0 l 310 0 l 310 378 l 400 378 b 725 686 610 378 725 483 b 439 992 725 860 636 992 l 51 992 z m 310 806 l 358 806 b 458 685 424 806 458 767 b 358 564 458 601 424 564 l 310 564 z "},"Q":{"ha":772,"x_min":0,"x_max":0,"o":"m 299 496 b 386 836 299 764 307 836 b 474 496 465 836 474 764 b 386 156 474 228 465 156 b 299 496 307 156 299 228 z m 776 -31 l 657 93 b 740 496 717 175 740 306 b 386 1011 740 867 650 1011 b 32 496 122 1011 32 867 b 386 -19 32 125 122 -19 b 435 -18 403 -19 419 -19 b 479 -12 450 -17 465 -14 l 621 -165 z "},"R":{"ha":797,"x_min":0,"x_max":0,"o":"m 61 0 l 319 0 l 319 397 l 388 397 b 472 256 450 397 472 368 l 472 189 b 497 0 472 147 472 53 l 772 0 l 772 14 b 743 44 756 22 750 33 b 731 182 731 64 731 131 l 731 267 b 568 489 731 399 693 478 l 568 492 b 738 728 686 510 738 596 b 465 992 738 881 663 992 l 61 992 z m 319 806 l 369 806 b 479 690 447 806 479 771 b 371 572 479 619 444 572 l 319 572 z "},"S":{"ha":746,"x_min":0,"x_max":0,"o":"m 689 706 b 368 1011 689 918 593 1011 b 43 701 150 1011 43 901 b 449 251 43 350 449 447 b 365 156 449 197 418 156 b 281 271 315 156 281 186 l 281 294 l 31 294 l 31 260 b 364 -19 31 54 150 -19 b 715 286 592 -19 715 75 b 293 749 715 649 293 553 b 374 836 293 793 318 836 b 447 729 424 836 447 788 l 447 706 z "},"T":{"ha":642,"x_min":0,"x_max":0,"o":"m 192 0 l 450 0 l 450 772 l 644 772 l 644 992 l -3 992 l -3 772 l 192 772 z "},"U":{"ha":772,"x_min":0,"x_max":0,"o":"m 50 992 l 50 342 b 386 -19 50 64 169 -19 b 722 342 603 -19 722 64 l 722 992 l 464 992 l 464 276 b 386 156 464 181 435 156 b 308 276 338 156 308 181 l 308 992 z "},"V":{"ha":722,"x_min":0,"x_max":0,"o":"m 194 0 l 528 0 l 742 992 l 467 992 l 363 244 l 360 244 l 256 992 l -19 992 z "},"W":{"ha":1081,"x_min":0,"x_max":0,"o":"m 331 306 l 328 306 l 250 992 l 0 992 l 169 0 l 453 0 l 539 667 l 542 667 l 628 0 l 911 0 l 1081 992 l 831 992 l 761 306 l 758 306 l 657 992 l 424 992 z "},"X":{"ha":744,"x_min":0,"x_max":0,"o":"m 218 503 l -17 0 l 272 0 l 371 299 l 374 299 l 472 0 l 761 0 l 529 503 l 744 992 l 456 992 l 374 704 l 371 704 l 289 992 l 0 992 z "},"Y":{"ha":722,"x_min":0,"x_max":0,"o":"m 232 0 l 490 0 l 490 390 l 743 992 l 460 992 l 363 646 l 360 646 l 263 992 l -21 992 l 232 390 z "},"Z":{"ha":668,"x_min":0,"x_max":0,"o":"m 28 0 l 640 0 l 640 211 l 324 211 l 640 806 l 640 992 l 49 992 l 49 781 l 339 781 l 28 186 z "},"[":{"ha":436,"x_min":0,"x_max":0,"o":"m 61 -256 l 436 -256 l 436 -81 l 294 -81 l 294 817 l 436 817 l 436 992 l 61 992 z "},"\\":{"ha":463,"x_min":0,"x_max":0,"o":"m 285 -19 l 493 -19 l 178 1011 l -31 1011 z "},"]":{"ha":436,"x_min":0,"x_max":0,"o":"m 142 -81 l 0 -81 l 0 -256 l 375 -256 l 375 992 l 0 992 l 0 817 l 142 817 z "},"^":{"ha":833,"x_min":0,"x_max":0,"o":"m 65 457 l 260 457 l 417 789 l 574 457 l 768 457 l 525 964 l 308 964 z "},"_":{"ha":694,"x_min":0,"x_max":0,"o":"m 0 -174 l 694 -174 l 694 -104 l 0 -104 z "},"‘":{"ha":361,"x_min":0,"x_max":0,"o":"m 64 472 l 297 472 l 297 739 l 208 739 l 208 756 b 297 872 208 829 231 865 l 297 992 b 64 722 133 989 64 901 z "},"a":{"ha":694,"x_min":0,"x_max":0,"o":"m 657 0 b 633 163 636 39 633 93 l 633 529 b 336 771 633 725 511 771 b 49 518 222 771 49 733 l 265 518 b 336 618 267 597 289 618 b 400 549 379 618 400 594 b 326 467 400 503 381 479 l 228 443 b 19 201 68 406 19 340 b 228 -19 19 72 78 -19 b 397 85 303 -19 369 18 l 400 85 b 415 0 404 54 407 26 z m 322 149 b 261 231 285 149 261 181 b 313 328 261 281 274 310 b 397 363 349 344 383 343 l 400 363 l 400 272 b 322 149 400 190 378 149 z "},"b":{"ha":722,"x_min":0,"x_max":0,"o":"m 54 0 l 296 0 l 296 103 l 299 103 b 469 -19 329 19 381 -19 b 694 392 638 -19 694 114 b 464 771 694 682 608 771 b 307 667 393 771 332 743 l 304 667 l 304 992 l 54 992 z m 304 375 b 374 585 304 538 317 585 b 444 375 432 585 444 538 b 374 167 444 214 432 167 b 304 375 317 167 304 214 z "},"c":{"ha":668,"x_min":0,"x_max":0,"o":"m 649 457 b 364 771 649 644 586 771 b 28 363 176 771 28 718 b 351 -19 28 39 160 -19 b 582 60 456 -19 533 6 b 649 314 631 114 649 196 l 424 314 l 424 265 b 351 142 424 171 397 142 b 278 375 294 142 278 190 b 351 610 278 560 294 610 b 407 578 378 610 396 601 b 424 457 418 554 424 518 z "},"d":{"ha":722,"x_min":0,"x_max":0,"o":"m 418 667 l 415 667 b 258 771 390 743 329 771 b 28 392 119 771 28 675 b 253 -19 28 114 85 -19 b 424 103 342 -19 393 19 l 426 103 l 426 0 l 668 0 l 668 992 l 418 992 z m 278 375 b 349 585 278 538 290 585 b 418 375 406 585 418 538 b 349 167 418 214 406 167 b 278 375 290 167 278 214 z "},"e":{"ha":668,"x_min":0,"x_max":0,"o":"m 649 333 l 649 410 b 347 771 649 682 547 771 b 28 375 122 771 28 663 b 347 -19 28 89 106 -19 b 642 264 554 -19 639 82 l 417 264 b 346 133 417 161 390 133 b 278 235 311 133 278 154 l 278 333 z m 415 469 l 278 469 l 278 503 b 346 618 278 582 294 618 b 415 503 399 618 415 582 z "},"f":{"ha":438,"x_min":0,"x_max":0,"o":"m 86 0 l 336 0 l 336 583 l 438 583 l 438 751 l 336 751 l 336 797 b 396 850 336 835 365 850 b 438 846 414 850 425 849 l 438 1003 b 318 1011 399 1008 354 1011 b 86 806 144 1011 86 956 l 86 751 l 0 751 l 0 583 l 86 583 z "},"g":{"ha":722,"x_min":0,"x_max":0,"o":"m 285 396 b 357 585 285 553 310 585 b 426 396 403 585 426 553 b 357 207 426 238 403 207 b 285 396 310 207 285 238 z m 435 647 l 432 647 b 267 771 404 738 336 771 b 35 392 121 771 35 682 b 254 21 35 79 154 21 b 424 133 324 21 392 47 l 426 133 l 426 -10 b 350 -103 426 -93 388 -103 b 288 -44 311 -103 288 -82 l 63 -44 b 354 -256 67 -215 193 -256 b 668 13 531 -256 668 -193 l 668 751 l 435 751 z "},"h":{"ha":722,"x_min":0,"x_max":0,"o":"m 50 0 l 300 0 l 300 496 b 361 585 300 558 317 585 b 422 496 406 585 422 558 l 422 0 l 672 0 l 672 567 b 476 771 672 724 579 771 b 303 668 415 771 344 747 l 300 668 l 300 992 l 50 992 z "},"i":{"ha":358,"x_min":0,"x_max":0,"o":"m 54 0 l 304 0 l 304 751 l 54 751 z m 54 806 l 304 806 l 304 992 l 54 992 z "},"j":{"ha":358,"x_min":0,"x_max":0,"o":"m 54 -17 b -40 -69 54 -61 22 -69 l -40 -237 b 72 -244 -4 -242 36 -244 b 304 -49 203 -244 304 -224 l 304 751 l 54 751 z m 54 806 l 304 806 l 304 992 l 54 992 z "},"k":{"ha":694,"x_min":0,"x_max":0,"o":"m 43 0 l 293 0 l 293 193 l 335 258 l 461 0 l 728 0 l 493 442 l 701 751 l 435 751 l 296 492 l 293 492 l 293 992 l 43 992 z "},"l":{"ha":358,"x_min":0,"x_max":0,"o":"m 54 0 l 304 0 l 304 992 l 54 992 z "},"m":{"ha":1081,"x_min":0,"x_max":0,"o":"m 415 0 l 665 0 l 665 496 b 726 585 665 558 682 585 b 788 496 771 585 788 558 l 788 0 l 1038 0 l 1038 567 b 842 771 1038 728 951 771 b 653 656 765 771 692 740 b 469 771 622 732 572 771 b 288 660 383 771 319 733 l 285 660 l 285 751 l 43 751 l 43 0 l 293 0 l 293 496 b 354 585 293 558 310 585 b 415 496 399 585 415 558 z "},"n":{"ha":722,"x_min":0,"x_max":0,"o":"m 50 0 l 300 0 l 300 496 b 361 585 300 558 317 585 b 422 496 406 585 422 558 l 422 0 l 672 0 l 672 567 b 476 771 672 728 586 771 b 294 660 390 771 326 733 l 292 660 l 292 751 l 50 751 z "},"o":{"ha":694,"x_min":0,"x_max":0,"o":"m 667 375 b 347 771 667 592 640 771 b 28 376 65 771 28 574 b 347 -19 28 160 54 -19 b 667 375 629 -19 667 178 z m 278 375 b 347 610 278 565 292 610 b 417 375 404 610 417 565 b 347 142 417 186 404 142 b 278 375 292 142 278 186 z "},"p":{"ha":722,"x_min":0,"x_max":0,"o":"m 54 -244 l 304 -244 l 304 85 l 307 85 b 464 -19 332 8 393 -19 b 694 360 603 -19 694 72 b 469 771 694 638 638 771 b 299 649 388 771 329 732 l 296 649 l 296 751 l 54 751 z m 304 376 b 374 585 304 538 317 585 b 444 376 432 585 444 538 b 374 167 444 214 432 167 b 304 376 317 167 304 214 z "},"q":{"ha":722,"x_min":0,"x_max":0,"o":"m 418 -244 l 668 -244 l 668 751 l 426 751 l 426 649 l 424 649 b 253 771 393 732 342 771 b 28 360 85 771 28 638 b 258 -19 28 69 114 -19 b 415 85 329 -19 390 8 l 418 85 z m 418 376 b 349 167 418 214 406 167 b 278 376 290 167 278 214 b 349 585 278 538 290 585 b 418 376 406 585 418 538 z "},"r":{"ha":489,"x_min":0,"x_max":0,"o":"m 43 0 l 293 0 l 293 410 b 433 543 293 508 344 543 b 496 538 454 543 474 542 l 496 771 l 456 771 b 288 632 382 771 315 722 l 285 632 l 285 751 l 43 751 z "},"s":{"ha":643,"x_min":0,"x_max":0,"o":"m 24 233 b 318 -19 24 69 108 -19 b 619 232 507 -19 619 86 b 257 560 619 519 257 436 b 321 618 257 596 283 618 b 388 535 363 618 388 599 l 604 535 b 322 771 604 692 510 771 b 24 536 119 771 24 668 b 386 197 24 251 386 331 b 314 133 386 157 353 133 b 261 160 292 133 274 143 b 243 233 249 176 243 204 z "},"t":{"ha":438,"x_min":0,"x_max":0,"o":"m 3 583 l 86 583 l 86 183 b 299 -8 86 17 146 -8 b 435 0 340 -8 389 -6 l 435 167 l 396 167 b 336 225 356 167 336 182 l 336 583 l 435 583 l 435 751 l 336 751 l 336 972 l 86 972 l 86 751 l 3 751 z "},"u":{"ha":722,"x_min":0,"x_max":0,"o":"m 50 185 b 246 -19 50 24 136 -19 b 428 92 332 -19 396 18 l 431 92 l 431 0 l 672 0 l 672 751 l 422 751 l 422 256 b 361 167 422 193 406 167 b 300 256 317 167 300 193 l 300 751 l 50 751 z "},"v":{"ha":643,"x_min":0,"x_max":0,"o":"m 174 0 l 468 0 l 651 751 l 393 751 l 324 211 l 321 211 l 250 751 l -8 751 z "},"w":{"ha":1028,"x_min":0,"x_max":0,"o":"m 153 0 l 436 0 l 513 532 l 515 532 l 592 0 l 875 0 l 1028 751 l 786 751 l 724 211 l 721 211 l 647 751 l 381 751 l 307 211 l 304 211 l 242 751 l 0 751 z "},"x":{"ha":668,"x_min":0,"x_max":0,"o":"m 193 388 l -6 0 l 244 0 l 336 226 l 424 0 l 674 0 l 475 388 l 664 751 l 414 751 l 328 550 l 253 751 l 3 751 z "},"y":{"ha":643,"x_min":0,"x_max":0,"o":"m 69 -239 b 210 -244 111 -243 157 -244 b 457 -25 344 -244 413 -197 l 658 751 l 408 751 l 336 244 l 333 244 l 257 751 l -1 751 l 197 43 b 208 -12 203 24 208 -1 b 125 -69 208 -28 188 -69 b 69 -64 107 -69 88 -68 z "},"z":{"ha":617,"x_min":0,"x_max":0,"o":"m 32 557 l 289 557 l 19 194 l 19 0 l 597 0 l 597 194 l 310 194 l 590 565 l 590 751 l 32 751 z "},"{":{"ha":463,"x_min":0,"x_max":0,"o":"m 88 -65 b 296 -256 88 -192 161 -256 l 463 -256 l 463 -81 l 385 -81 b 321 6 326 -81 321 -31 l 321 226 b 171 367 321 353 219 363 l 171 369 b 321 497 219 372 321 394 l 321 731 b 385 817 321 767 326 817 l 463 817 l 463 992 l 296 992 b 88 801 161 992 88 928 l 88 542 b -7 461 88 469 25 461 l -7 275 b 88 182 25 275 88 265 z "},"|":{"ha":308,"x_min":0,"x_max":0,"o":"m 57 -19 l 251 -19 l 251 1011 l 57 1011 z "},"}":{"ha":463,"x_min":0,"x_max":0,"o":"m 0 -256 l 167 -256 b 375 -65 301 -256 375 -192 l 375 194 b 469 275 375 267 438 275 l 469 461 b 375 554 438 461 375 471 l 375 801 b 167 992 375 928 301 992 l 0 992 l 0 817 l 78 817 b 142 731 136 817 142 767 l 142 510 b 292 369 142 383 243 374 l 292 367 b 142 239 243 364 142 342 l 142 6 b 78 -81 142 -31 136 -81 l 0 -81 z "},"~":{"ha":833,"x_min":0,"x_max":0,"o":"m 146 203 b 263 301 172 268 215 301 b 564 207 390 301 453 207 b 738 326 632 207 689 251 l 688 500 b 565 401 649 439 611 401 b 269 496 490 401 374 496 b 96 376 186 496 128 446 z "},"¡":{"ha":436,"x_min":0,"x_max":0,"o":"m 100 536 l 333 536 l 333 756 l 100 756 z m 97 -236 l 339 -236 l 339 96 l 310 468 l 124 468 l 97 96 z "},"¢":{"ha":722,"x_min":0,"x_max":0,"o":"m 318 -142 l 429 -142 l 429 -19 b 604 60 508 -8 565 17 b 671 314 653 114 671 196 l 446 314 l 446 265 b 374 142 446 171 419 142 b 301 375 318 142 301 190 b 374 610 301 560 318 610 b 429 578 400 610 418 601 b 446 457 440 554 446 518 l 671 457 b 429 771 671 625 632 753 l 429 876 l 318 876 l 318 771 b 51 358 149 750 51 656 b 114 82 51 235 71 144 b 318 -19 157 21 224 -11 z "},"£":{"ha":722,"x_min":0,"x_max":0,"o":"m 17 408 l 165 408 b 172 368 169 392 172 381 b 17 135 172 276 100 190 l 74 -11 b 224 31 121 13 172 31 b 482 -19 310 31 396 -19 b 706 47 561 -19 638 -1 l 636 203 b 492 149 565 165 526 149 b 342 183 440 149 394 183 b 296 174 326 183 311 179 l 293 176 b 422 367 372 235 422 308 b 415 408 422 379 419 392 l 607 408 l 607 553 l 369 553 b 301 742 328 631 301 693 b 379 822 301 783 328 822 b 458 722 422 822 458 794 l 458 700 l 683 700 b 358 983 681 879 599 983 b 51 728 181 983 51 899 b 111 553 51 668 76 604 l 17 553 z "},"⁄":{"ha":232,"x_min":0,"x_max":0,"o":"m -229 -43 l -76 -43 l 461 1007 l 308 1007 z "},"∕":{"ha":232,"x_min":0,"x_max":0,"o":"m -229 -43 l -76 -43 l 461 1007 l 308 1007 z "},"¥":{"ha":722,"x_min":0,"x_max":0,"o":"m 236 0 l 486 0 l 486 171 l 660 171 l 660 315 l 486 315 l 486 379 l 494 403 l 660 403 l 660 547 l 556 547 l 729 964 l 463 964 l 363 603 l 360 603 l 260 964 l -7 964 l 167 547 l 63 547 l 63 403 l 228 403 l 236 379 l 236 315 l 63 315 l 63 171 l 236 171 z "},"ƒ":{"ha":722,"x_min":0,"x_max":0,"o":"m 83 439 l 231 439 l 160 58 b 57 -83 138 -58 111 -83 l -1 -83 l -36 -233 b 90 -244 0 -239 46 -244 b 389 29 240 -244 343 -207 l 468 439 l 619 439 l 647 583 l 493 583 l 519 703 b 629 831 542 806 576 831 b 676 828 644 831 661 829 l 708 981 b 594 992 672 986 635 992 b 292 750 411 992 324 917 l 260 583 l 111 583 z "},"§":{"ha":722,"x_min":0,"x_max":0,"o":"m 657 767 l 657 793 b 363 1011 657 940 556 1011 b 60 771 158 1011 60 917 b 143 610 60 714 88 646 b 28 410 76 575 28 489 b 421 25 28 106 421 190 b 354 -53 421 -17 401 -53 b 285 61 310 -53 285 -21 l 51 61 l 51 39 b 356 -214 53 -132 160 -214 b 671 35 533 -214 671 -146 b 594 222 671 104 654 176 b 694 422 664 276 694 344 b 301 793 694 728 301 664 b 367 850 301 826 331 850 b 440 767 406 850 440 835 z m 276 375 b 222 439 233 394 222 414 b 286 533 222 458 239 493 b 500 393 350 489 500 475 b 440 300 500 363 492 338 z "},"¤":{"ha":722,"x_min":0,"x_max":0,"o":"m 113 135 l 185 210 b 361 156 235 175 296 156 b 538 210 426 156 488 175 l 610 135 l 710 242 l 638 313 b 688 482 669 363 688 421 b 635 657 688 546 667 606 l 710 731 l 610 829 l 533 758 b 361 808 483 790 424 808 b 189 758 299 808 239 790 l 113 829 l 13 731 l 88 657 b 35 482 56 606 35 546 b 85 313 35 421 53 363 l 13 242 z m 221 482 b 361 633 221 582 272 633 b 501 482 450 633 501 582 b 361 331 501 382 450 331 b 221 482 272 331 221 382 z "},"'":{"ha":361,"x_min":0,"x_max":0,"o":"m 83 472 l 278 472 l 278 992 l 83 992 z "},"“":{"ha":668,"x_min":0,"x_max":0,"o":"m 376 472 l 610 472 l 610 739 l 521 739 l 521 756 b 610 872 521 829 543 865 l 610 992 b 376 722 446 989 376 901 z m 58 472 l 292 472 l 292 739 l 203 739 l 203 756 b 292 872 203 829 225 865 l 292 992 b 58 722 128 989 58 901 z "},"«":{"ha":617,"x_min":0,"x_max":0,"o":"m 332 249 l 549 104 l 549 324 l 432 401 l 549 479 l 549 699 l 332 554 z m 68 249 l 285 104 l 285 324 l 168 401 l 285 479 l 285 699 l 68 554 z "},"‹":{"ha":333,"x_min":0,"x_max":0,"o":"m 58 249 l 275 104 l 275 324 l 158 401 l 275 479 l 275 699 l 58 554 z "},"›":{"ha":333,"x_min":0,"x_max":0,"o":"m 58 104 l 275 249 l 275 554 l 58 699 l 58 479 l 175 401 l 58 324 z "},"ﬁ":{"ha":772,"x_min":0,"x_max":0,"o":"m 468 0 l 718 0 l 718 751 l 468 751 z m 468 806 l 718 806 l 718 992 l 468 992 z m 86 0 l 336 0 l 336 583 l 438 583 l 438 751 l 336 751 l 336 797 b 396 850 336 835 365 850 b 438 846 414 850 425 849 l 438 1003 b 318 1011 399 1008 354 1011 b 86 806 144 1011 86 956 l 86 751 l 0 751 l 0 583 l 86 583 z "},"ﬂ":{"ha":772,"x_min":0,"x_max":0,"o":"m 468 0 l 718 0 l 718 992 l 468 992 z m 86 0 l 336 0 l 336 583 l 438 583 l 438 751 l 336 751 l 336 797 b 396 850 336 835 365 850 b 438 846 414 850 425 849 l 438 1003 b 318 1011 399 1008 354 1011 b 86 806 144 1011 86 956 l 86 751 l 0 751 l 0 583 l 86 583 z "},"–":{"ha":694,"x_min":0,"x_max":0,"o":"m 0 300 l 694 300 l 694 503 l 0 503 z "},"†":{"ha":722,"x_min":0,"x_max":0,"o":"m 236 722 l 11 722 l 11 528 l 236 528 l 236 -194 l 486 -194 l 486 528 l 711 528 l 711 722 l 486 722 l 486 992 l 236 992 z "},"‡":{"ha":722,"x_min":0,"x_max":0,"o":"m 11 75 l 236 75 l 236 -194 l 486 -194 l 486 75 l 711 75 l 711 269 l 486 269 l 486 528 l 711 528 l 711 722 l 486 722 l 486 992 l 236 992 l 236 722 l 11 722 l 11 528 l 236 528 l 236 269 l 11 269 z "},"·":{"ha":361,"x_min":0,"x_max":0,"o":"m 43 381 b 181 243 43 304 104 243 b 318 381 257 243 318 304 b 181 518 318 457 257 518 b 43 381 104 518 43 457 z "},"∙":{"ha":361,"x_min":0,"x_max":0,"o":"m 43 381 b 181 243 43 304 104 243 b 318 381 257 243 318 304 b 181 518 318 457 257 518 b 43 381 104 518 43 457 z "},"¶":{"ha":925,"x_min":0,"x_max":0,"o":"m 286 -194 l 481 -194 l 481 839 l 613 839 l 613 -194 l 807 -194 l 807 992 l 401 992 b 46 721 208 992 46 944 b 286 458 46 547 168 458 z "},"•":{"ha":694,"x_min":0,"x_max":0,"o":"m 100 496 b 347 249 100 360 211 249 b 594 496 483 249 594 360 b 347 743 594 632 483 743 b 100 496 211 743 100 632 z "},"‚":{"ha":361,"x_min":0,"x_max":0,"o":"m 64 8 l 153 8 l 153 -8 b 64 -125 153 -82 131 -118 l 64 -244 b 297 25 228 -242 297 -154 l 297 275 l 64 275 z "},"„":{"ha":668,"x_min":0,"x_max":0,"o":"m 58 8 l 147 8 l 147 -8 b 58 -125 147 -82 125 -118 l 58 -244 b 292 25 222 -242 292 -154 l 292 275 l 58 275 z m 376 8 l 465 8 l 465 -8 b 376 -125 465 -82 443 -118 l 376 -244 b 610 25 540 -242 610 -154 l 610 275 l 376 275 z "},"”":{"ha":668,"x_min":0,"x_max":0,"o":"m 58 725 l 147 725 l 147 708 b 58 592 147 635 125 599 l 58 472 b 292 742 222 475 292 563 l 292 992 l 58 992 z m 376 725 l 465 725 l 465 708 b 376 592 465 635 443 599 l 376 472 b 610 742 540 475 610 563 l 610 992 l 376 992 z "},"»":{"ha":617,"x_min":0,"x_max":0,"o":"m 68 104 l 285 249 l 285 554 l 68 699 l 68 479 l 185 401 l 68 324 z m 332 104 l 549 249 l 549 554 l 332 699 l 332 479 l 449 401 l 332 324 z "},"…":{"ha":1389,"x_min":0,"x_max":0,"o":"m 115 0 l 349 0 l 349 275 l 115 275 z m 578 0 l 811 0 l 811 275 l 578 275 z m 1040 0 l 1274 0 l 1274 275 l 1040 275 z "},"‰":{"ha":1543,"x_min":0,"x_max":0,"o":"m 775 247 b 824 403 775 375 783 403 b 872 247 864 403 872 375 b 824 92 872 119 864 92 b 775 247 783 92 775 119 z m 232 -19 l 385 -19 l 825 983 l 672 983 z m 186 717 b 235 872 186 844 194 872 b 283 717 275 872 283 844 b 235 561 283 589 275 561 b 186 717 194 561 186 589 z m 606 247 b 824 -19 606 54 660 -19 b 1042 247 988 -19 1042 54 b 824 514 1042 440 988 514 b 606 247 660 514 606 440 z m 17 717 b 235 450 17 524 71 450 b 453 717 399 450 453 524 b 235 983 453 910 399 983 b 17 717 71 983 17 910 z m 1090 247 b 1308 -19 1090 54 1144 -19 b 1526 247 1472 -19 1526 54 b 1308 514 1526 440 1472 514 b 1090 247 1144 514 1090 440 z m 1260 247 b 1308 403 1260 375 1268 403 b 1357 247 1349 403 1357 375 b 1308 92 1357 119 1349 92 b 1260 247 1268 92 1260 119 z "},"¿":{"ha":694,"x_min":0,"x_max":0,"o":"m 417 78 b 349 -94 417 -71 392 -94 b 286 -4 307 -94 286 -58 b 326 118 286 29 289 76 l 408 211 b 468 429 454 264 468 325 l 468 468 l 243 468 b 211 332 243 410 236 361 l 110 217 b 44 19 61 163 44 94 b 339 -256 44 -147 138 -256 b 571 -181 440 -256 518 -233 b 650 78 622 -129 650 -44 z m 239 536 l 472 536 l 472 756 l 239 756 z "},"`":{"ha":361,"x_min":0,"x_max":0,"o":"m 135 821 l 296 821 l 235 1024 l 1 1024 z "},"´":{"ha":361,"x_min":0,"x_max":0,"o":"m 79 821 l 240 821 l 374 1024 l 140 1024 z "},"ˆ":{"ha":361,"x_min":0,"x_max":0,"o":"m -39 821 l 131 821 l 181 932 l 231 821 l 400 821 l 314 1024 l 47 1024 z "},"˜":{"ha":361,"x_min":0,"x_max":0,"o":"m 290 1024 b 253 982 286 992 272 982 b 178 1003 233 982 207 993 b 88 1024 149 1014 117 1024 b -49 829 8 1024 -32 956 l 71 829 b 103 871 71 853 83 871 b 271 829 143 871 196 829 b 410 1024 338 829 396 886 z "},"¯":{"ha":361,"x_min":0,"x_max":0,"o":"m -39 856 l 400 856 l 400 992 l -39 992 z "},"ˉ":{"ha":361,"x_min":0,"x_max":0,"o":"m -39 856 l 400 856 l 400 992 l -39 992 z "},"˘":{"ha":361,"x_min":0,"x_max":0,"o":"m -29 1024 b 181 821 -21 900 49 821 b 390 1024 313 821 382 900 l 279 1024 b 181 932 274 956 228 932 b 82 1024 133 932 88 956 z "},"˙":{"ha":361,"x_min":0,"x_max":0,"o":"m 88 817 l 274 817 l 274 1011 l 88 1011 z "},"¨":{"ha":361,"x_min":0,"x_max":0,"o":"m -39 817 l 147 817 l 147 1011 l -39 1011 z m 214 817 l 400 817 l 400 1011 l 214 1011 z "},"˚":{"ha":361,"x_min":0,"x_max":0,"o":"m 26 976 b 181 822 26 892 96 822 b 335 976 265 822 335 892 b 181 1131 335 1061 265 1131 b 26 976 96 1131 26 1061 z m 118 976 b 181 1039 118 1011 146 1039 b 243 976 215 1039 243 1011 b 181 914 243 942 215 914 b 118 976 146 914 118 942 z "},"¸":{"ha":361,"x_min":0,"x_max":0,"o":"m 156 8 l 85 -125 l 119 -154 b 160 -144 132 -149 144 -144 b 217 -189 183 -144 217 -153 b 147 -236 217 -215 190 -236 b 53 -214 115 -236 83 -228 l 22 -292 b 181 -319 65 -308 128 -319 b 361 -182 289 -319 361 -274 b 233 -72 361 -107 300 -72 b 193 -79 218 -72 204 -75 l 239 8 z "},"˝":{"ha":361,"x_min":0,"x_max":0,"o":"m -74 821 l 88 821 l 221 1024 l -12 1024 z m 204 821 l 365 821 l 499 1024 l 265 1024 z "},"˛":{"ha":361,"x_min":0,"x_max":0,"o":"m 321 -214 b 213 -236 288 -229 250 -236 b 160 -176 182 -236 160 -219 b 229 -67 160 -133 190 -97 l 328 8 l 217 8 l 151 -24 b 15 -199 67 -65 15 -128 b 174 -319 15 -268 53 -319 b 351 -286 226 -319 306 -308 z "},"ˇ":{"ha":361,"x_min":0,"x_max":0,"o":"m 47 821 l 314 821 l 400 1024 l 231 1024 l 181 913 l 131 1024 l -39 1024 z "},"—":{"ha":1389,"x_min":0,"x_max":0,"o":"m 0 300 l 1389 300 l 1389 503 l 0 503 z "},"Æ":{"ha":1081,"x_min":0,"x_max":0,"o":"m 367 368 l 504 817 l 507 817 l 507 368 z m -18 0 l 257 0 l 307 165 l 507 165 l 507 0 l 1058 0 l 1058 211 l 749 211 l 749 408 l 1021 408 l 1021 611 l 749 611 l 749 781 l 1043 781 l 1043 992 l 357 992 z "},"ª":{"ha":489,"x_min":0,"x_max":0,"o":"m 194 839 b 240 889 196 876 210 889 b 282 858 268 889 282 875 b 235 810 282 831 269 818 l 171 794 b 14 650 47 765 14 733 b 171 518 14 572 51 518 b 238 535 196 518 218 524 b 279 581 256 544 271 561 l 282 581 b 293 528 285 561 286 544 l 475 528 b 460 626 463 553 460 585 l 460 847 b 240 992 460 950 417 992 b 33 839 129 992 33 969 z m 282 704 b 232 629 282 654 268 629 b 192 668 207 629 192 649 b 225 726 192 697 200 715 b 279 749 249 736 271 735 l 282 749 z "},"Ł":{"ha":643,"x_min":0,"x_max":0,"o":"m 61 0 l 638 0 l 638 211 l 319 211 l 319 463 l 492 572 l 492 733 l 319 624 l 319 992 l 61 992 l 61 460 l -19 408 l -19 247 l 61 299 z "},"Ø":{"ha":772,"x_min":0,"x_max":0,"o":"m 301 407 l 299 407 l 299 496 b 386 836 299 764 307 836 b 451 790 418 836 439 824 z m 471 585 l 474 585 l 474 496 b 386 156 474 228 465 156 b 321 203 354 156 333 168 z m 121 -46 l 210 -81 l 242 0 b 386 -19 282 -12 331 -19 b 740 496 650 -19 740 125 b 615 946 740 728 706 871 l 651 1038 l 563 1072 l 531 992 b 386 1011 490 1004 442 1011 b 32 496 122 1011 32 867 b 158 49 32 265 67 122 z "},"Œ":{"ha":1054,"x_min":0,"x_max":0,"o":"m 710 408 l 999 408 l 999 611 l 710 611 l 710 781 l 1019 781 l 1019 992 l 499 992 l 499 949 b 318 1011 451 994 390 1011 b 32 496 114 1011 32 883 b 325 -19 32 118 86 -19 b 496 43 399 -19 463 3 l 499 43 l 499 0 l 1032 0 l 1032 211 l 710 211 z m 290 496 b 381 836 290 764 299 836 b 468 496 460 836 468 764 b 381 156 468 228 460 156 b 290 496 299 156 290 228 z "},"º":{"ha":489,"x_min":0,"x_max":0,"o":"m 14 754 b 244 518 14 582 64 518 b 475 754 425 518 475 582 b 244 992 475 926 425 992 b 14 754 64 992 14 926 z m 200 754 b 244 881 200 854 210 881 b 289 754 281 881 289 854 b 244 629 289 656 281 629 b 200 754 210 629 200 656 z "},"æ":{"ha":1028,"x_min":0,"x_max":0,"o":"m 776 469 l 640 469 l 640 503 b 707 618 640 582 657 618 b 776 503 760 618 776 582 z m 274 518 b 344 618 275 597 297 618 b 407 549 386 618 407 594 b 335 467 407 503 388 479 l 236 443 b 28 201 76 406 28 340 b 236 -19 28 72 86 -19 b 464 108 339 -19 413 8 b 725 -19 504 22 564 -19 b 932 54 813 -19 885 6 b 1001 264 979 103 1000 174 l 776 264 b 707 133 776 161 751 133 b 640 235 674 133 640 154 l 640 333 l 1010 333 l 1010 410 b 735 771 1010 682 922 771 b 539 688 638 771 582 746 b 344 771 490 743 411 771 b 57 518 204 771 57 733 z m 407 272 b 331 149 407 190 385 149 b 269 231 293 149 269 181 b 321 328 269 281 282 310 b 404 363 357 344 392 343 l 407 363 z "},"ı":{"ha":358,"x_min":0,"x_max":0,"o":"m 54 0 l 304 0 l 304 751 l 54 751 z "},"ł":{"ha":386,"x_min":0,"x_max":0,"o":"m 68 0 l 318 0 l 318 528 l 399 578 l 399 731 l 318 681 l 318 992 l 68 992 l 68 528 l -12 478 l -12 325 l 68 375 z "},"ø":{"ha":694,"x_min":0,"x_max":0,"o":"m 414 403 l 417 403 l 417 375 b 347 142 417 186 404 142 b 292 193 318 142 301 154 z m 279 350 b 278 375 278 356 278 365 b 347 610 278 565 292 610 b 404 561 376 610 393 599 z m 49 -36 l 124 -86 l 182 10 b 347 -19 221 -10 276 -19 b 667 375 629 -19 667 178 b 588 690 667 504 657 619 l 646 788 l 568 838 l 513 743 b 347 771 469 761 415 771 b 28 376 65 771 28 574 b 106 61 28 247 38 132 z "},"œ":{"ha":1028,"x_min":0,"x_max":0,"o":"m 268 375 b 338 610 268 565 282 610 b 407 375 394 610 407 565 b 338 142 407 186 394 142 b 268 375 282 142 268 186 z m 640 503 b 707 618 640 582 657 618 b 776 503 760 618 776 582 l 776 469 l 640 469 z m 776 264 b 707 133 776 161 751 133 b 640 235 674 133 640 154 l 640 333 l 1010 333 l 1010 410 b 735 771 1010 682 922 771 b 529 686 635 771 569 732 b 335 771 501 731 419 771 b 18 375 106 771 18 658 b 315 -19 18 85 107 -19 b 518 74 403 -19 475 6 b 725 -19 547 14 625 -19 b 932 54 813 -19 885 6 b 1001 264 979 103 1000 174 z "},"ß":{"ha":722,"x_min":0,"x_max":0,"o":"m 285 0 l 285 740 b 353 843 285 813 308 843 b 425 732 397 843 425 810 b 360 632 425 669 408 632 l 339 632 l 339 464 l 367 464 b 444 329 419 464 444 428 b 371 160 444 190 424 160 b 336 168 358 160 347 164 l 336 0 b 436 -8 369 -7 401 -8 b 694 307 625 -8 694 79 b 547 558 694 428 665 539 l 547 561 b 675 750 635 571 675 661 b 372 1011 675 924 576 1011 b 43 708 156 1011 43 935 l 43 0 z "},"¹":{"ha":463,"x_min":0,"x_max":0,"o":"m 151 389 l 346 389 l 346 983 l 201 983 b 31 892 176 913 133 893 l 31 781 l 151 781 z "},"¬":{"ha":833,"x_min":0,"x_max":0,"o":"m 574 151 l 768 151 l 768 604 l 65 604 l 65 410 l 574 410 z "},"µ":{"ha":722,"x_min":0,"x_max":0,"o":"m 50 -244 l 300 -244 l 300 -15 b 321 -19 306 -18 314 -19 b 428 92 363 -19 399 24 l 431 92 l 431 0 l 672 0 l 672 751 l 422 751 l 422 256 b 361 167 422 193 406 167 b 300 256 317 167 300 193 l 300 751 l 50 751 z "},"μ":{"ha":722,"x_min":0,"x_max":0,"o":"m 50 -244 l 300 -244 l 300 -15 b 321 -19 306 -18 314 -19 b 428 92 363 -19 399 24 l 431 92 l 431 0 l 672 0 l 672 751 l 422 751 l 422 256 b 361 167 422 193 406 167 b 300 256 317 167 300 193 l 300 751 l 50 751 z "},"™":{"ha":1389,"x_min":0,"x_max":0,"o":"m 158 419 l 353 419 l 353 847 l 497 847 l 497 992 l 14 992 l 14 847 l 158 847 z m 1153 419 l 1331 419 l 1331 992 l 1089 992 l 965 688 l 842 992 l 600 992 l 600 419 l 778 419 l 778 781 l 781 781 l 906 419 l 1025 419 l 1150 781 l 1153 781 z "},"Ð":{"ha":797,"x_min":0,"x_max":0,"o":"m 61 0 l 436 0 b 750 496 735 0 750 236 b 436 992 750 756 735 992 l 61 992 l 61 603 l -12 603 l -12 428 l 61 428 z m 319 603 l 319 806 l 371 806 b 483 496 471 806 483 764 b 371 186 483 228 471 186 l 319 186 l 319 428 l 392 428 l 392 603 z "},"½":{"ha":1131,"x_min":0,"x_max":0,"o":"m 156 -43 l 308 -43 l 846 1007 l 693 1007 z m 135 389 l 329 389 l 329 983 l 185 983 b 14 892 160 913 117 893 l 14 781 l 135 781 z m 832 383 l 832 403 b 876 483 832 471 856 483 b 921 431 903 483 921 467 b 875 333 921 386 908 364 l 764 228 b 668 0 690 158 668 82 l 1115 0 l 1115 128 l 894 128 b 936 178 901 146 921 164 l 1035 268 b 1115 432 1083 313 1115 364 b 882 594 1115 522 1076 594 b 693 539 776 594 724 575 b 654 383 663 504 654 456 z "},"±":{"ha":833,"x_min":0,"x_max":0,"o":"m 319 581 l 65 581 l 65 386 l 319 386 l 319 264 l 514 264 l 514 386 l 768 386 l 768 581 l 514 581 l 514 703 l 319 703 z m 65 0 l 768 0 l 768 194 l 65 194 z "},"Þ":{"ha":746,"x_min":0,"x_max":0,"o":"m 51 0 l 310 0 l 310 211 l 400 211 b 725 519 610 211 725 317 b 439 825 725 693 636 825 l 310 825 l 310 992 l 51 992 z m 310 639 l 358 639 b 458 518 424 639 458 600 b 358 397 458 435 424 397 l 310 397 z "},"¼":{"ha":1131,"x_min":0,"x_max":0,"o":"m 778 228 l 882 410 l 885 410 l 885 228 z m 633 100 l 885 100 l 885 0 l 1054 0 l 1054 100 l 1110 100 l 1110 228 l 1054 228 l 1054 585 l 836 585 l 633 228 z m 203 -43 l 356 -43 l 893 1007 l 740 1007 z m 135 389 l 329 389 l 329 983 l 185 983 b 14 892 160 913 117 893 l 14 781 l 135 781 z "},"÷":{"ha":833,"x_min":0,"x_max":0,"o":"m 65 254 l 768 254 l 768 449 l 65 449 z m 279 646 b 417 508 279 569 340 508 b 554 646 493 508 554 569 b 417 783 554 722 493 783 b 279 646 340 783 279 722 z m 279 57 b 417 -81 279 -19 340 -81 b 554 57 493 -81 554 -19 b 417 194 554 133 493 194 b 279 57 340 194 279 133 z "},"¦":{"ha":308,"x_min":0,"x_max":0,"o":"m 57 -19 l 251 -19 l 251 383 l 57 383 z m 57 608 l 251 608 l 251 1011 l 57 1011 z "},"°":{"ha":556,"x_min":0,"x_max":0,"o":"m 56 761 b 278 539 56 639 156 539 b 500 761 400 539 500 639 b 278 983 500 883 400 983 b 56 761 156 983 56 883 z m 183 761 b 278 856 183 814 225 856 b 372 761 331 856 372 814 b 278 667 372 708 331 667 b 183 761 225 667 183 708 z "},"þ":{"ha":722,"x_min":0,"x_max":0,"o":"m 54 -244 l 304 -244 l 304 85 l 307 85 b 464 -19 332 8 393 -19 b 694 360 608 -19 694 69 b 469 771 694 638 638 771 b 369 742 429 771 396 761 b 307 649 342 721 322 690 l 304 649 l 304 992 l 54 992 z m 304 376 b 374 585 304 538 317 585 b 444 376 432 585 444 538 b 374 167 444 214 432 167 b 304 376 317 167 304 214 z "},"¾":{"ha":1131,"x_min":0,"x_max":0,"o":"m 761 228 l 865 410 l 868 410 l 868 228 z m 633 100 l 885 100 l 885 0 l 1054 0 l 1054 100 l 1110 100 l 1110 228 l 1054 228 l 1054 585 l 836 585 l 633 228 z m 254 -43 l 407 -43 l 944 1007 l 792 1007 z m 201 808 b 247 872 201 853 215 872 b 289 822 276 872 289 857 b 217 743 289 758 267 743 l 192 743 l 192 640 l 235 640 b 296 567 276 640 296 626 b 250 490 296 508 289 490 b 213 513 232 490 221 497 b 199 565 204 528 199 550 l 21 565 b 256 379 22 425 89 379 b 490 569 419 379 490 438 b 386 697 490 633 465 686 l 386 700 b 475 819 453 715 475 771 b 251 983 475 925 432 983 b 85 942 168 983 119 971 b 32 808 50 913 32 868 z "},"²":{"ha":514,"x_min":0,"x_max":0,"o":"m 204 772 l 204 792 b 249 872 204 860 228 872 b 293 819 275 872 293 856 b 247 722 293 775 281 753 l 136 617 b 40 389 63 547 40 471 l 488 389 l 488 517 l 267 517 b 308 567 274 535 293 553 l 407 657 b 488 821 456 701 488 753 b 254 983 488 911 449 983 b 65 928 149 983 96 964 b 26 772 35 893 26 844 z "},"®":{"ha":1111,"x_min":0,"x_max":0,"o":"m 40 496 b 556 -19 40 211 271 -19 b 1071 496 840 -19 1071 211 b 556 1011 1071 781 840 1011 b 40 496 271 1011 40 781 z m 218 496 b 556 858 218 732 344 858 b 893 496 767 858 893 732 b 556 133 893 260 767 133 b 218 496 344 133 218 260 z m 360 251 l 488 251 l 488 450 l 532 450 l 643 251 l 785 251 l 667 464 b 771 606 710 469 771 504 b 533 776 771 738 681 776 l 360 776 z m 488 553 l 488 674 l 556 674 b 635 615 606 674 635 654 b 556 553 635 574 606 553 z "},"−":{"ha":833,"x_min":0,"x_max":0,"o":"m 65 254 l 768 254 l 768 449 l 65 449 z "},"ð":{"ha":694,"x_min":0,"x_max":0,"o":"m 278 375 b 347 575 278 531 292 575 b 417 375 404 575 417 531 b 347 142 417 186 404 142 b 278 375 292 142 278 186 z m 90 879 l 154 783 l 271 846 b 381 704 318 793 361 740 l 378 701 b 264 736 347 721 306 736 b 28 358 142 736 28 654 b 347 -19 28 89 106 -19 b 667 397 629 -19 667 167 b 449 943 667 608 586 788 l 539 992 l 478 1088 l 367 1028 b 271 1111 339 1056 306 1083 l 119 997 b 189 932 139 981 163 958 z "},"×":{"ha":833,"x_min":0,"x_max":0,"o":"m 279 351 l 81 153 l 218 15 l 417 214 l 615 15 l 753 153 l 554 351 l 753 550 l 615 688 l 417 489 l 218 688 l 81 550 z "},"³":{"ha":514,"x_min":0,"x_max":0,"o":"m 203 808 b 249 872 203 853 217 872 b 290 822 278 872 290 857 b 218 743 290 758 268 743 l 193 743 l 193 640 l 236 640 b 297 567 278 640 297 626 b 251 490 297 508 290 490 b 214 513 233 490 222 497 b 200 565 206 528 200 550 l 22 565 b 257 379 24 425 90 379 b 492 569 421 379 492 438 b 388 697 492 633 467 686 l 388 700 b 476 819 454 715 476 771 b 253 983 476 925 433 983 b 86 942 169 983 121 971 b 33 808 51 913 33 868 z "},"©":{"ha":1111,"x_min":0,"x_max":0,"o":"m 668 415 b 574 329 661 357 624 329 b 440 497 492 329 440 396 b 569 661 440 597 486 661 b 668 581 619 661 656 633 l 813 581 b 569 789 790 718 693 789 b 296 489 404 789 296 657 b 578 201 296 326 410 201 b 821 415 694 201 800 275 z m 40 496 b 556 -19 40 211 271 -19 b 1071 496 840 -19 1071 211 b 556 1011 1071 781 840 1011 b 40 496 271 1011 40 781 z m 218 496 b 556 858 218 732 344 858 b 893 496 767 858 893 732 b 556 133 893 260 767 133 b 218 496 344 133 218 260 z "},"Á":{"ha":772,"x_min":0,"x_max":0,"o":"m -18 0 l 257 0 l 283 174 l 489 174 l 515 0 l 790 0 l 549 992 l 224 992 z m 458 368 l 314 368 l 385 789 l 388 789 z m 276 1061 l 438 1061 l 571 1264 l 338 1264 z "},"Â":{"ha":772,"x_min":0,"x_max":0,"o":"m -18 0 l 257 0 l 283 174 l 489 174 l 515 0 l 790 0 l 549 992 l 224 992 z m 458 368 l 314 368 l 385 789 l 388 789 z m 158 1061 l 328 1061 l 378 1172 l 428 1061 l 597 1061 l 511 1264 l 244 1264 z "},"Ä":{"ha":772,"x_min":0,"x_max":0,"o":"m -18 0 l 257 0 l 283 174 l 489 174 l 515 0 l 790 0 l 549 992 l 224 992 z m 458 368 l 314 368 l 385 789 l 388 789 z m 158 1057 l 344 1057 l 344 1251 l 158 1251 z m 411 1057 l 597 1057 l 597 1251 l 411 1251 z "},"À":{"ha":772,"x_min":0,"x_max":0,"o":"m -18 0 l 257 0 l 283 174 l 489 174 l 515 0 l 790 0 l 549 992 l 224 992 z m 458 368 l 314 368 l 385 789 l 388 789 z m 332 1061 l 493 1061 l 432 1264 l 199 1264 z "},"Å":{"ha":772,"x_min":0,"x_max":0,"o":"m -18 0 l 257 0 l 283 174 l 489 174 l 515 0 l 790 0 l 549 992 l 224 992 z m 458 368 l 314 368 l 385 789 l 388 789 z m 232 1196 b 386 1042 232 1111 301 1042 b 540 1196 471 1042 540 1111 b 386 1350 540 1281 471 1350 b 232 1196 301 1350 232 1281 z m 324 1196 b 386 1258 324 1231 351 1258 b 449 1196 421 1258 449 1231 b 386 1133 449 1161 421 1133 b 324 1196 351 1133 324 1161 z "},"Ã":{"ha":772,"x_min":0,"x_max":0,"o":"m -18 0 l 257 0 l 283 174 l 489 174 l 515 0 l 790 0 l 549 992 l 224 992 z m 458 368 l 314 368 l 385 789 l 388 789 z m 488 1264 b 450 1222 483 1232 469 1222 b 375 1243 431 1222 404 1233 b 285 1264 346 1254 314 1264 b 149 1069 206 1264 165 1196 l 268 1069 b 300 1111 268 1093 281 1111 b 468 1069 340 1111 393 1069 b 607 1264 535 1069 593 1126 z "},"Ç":{"ha":746,"x_min":0,"x_max":0,"o":"m 278 -125 l 313 -154 b 353 -144 325 -149 338 -144 b 410 -189 376 -144 410 -153 b 340 -236 410 -215 383 -236 b 246 -214 308 -236 276 -228 l 215 -292 b 374 -319 258 -308 321 -319 b 554 -182 482 -319 554 -274 b 426 -72 554 -107 493 -72 b 386 -79 411 -72 397 -75 l 418 -19 b 714 325 571 -10 714 65 l 714 399 l 464 399 b 386 156 464 211 450 156 b 299 496 307 156 299 228 b 386 836 299 764 307 836 b 457 690 436 836 457 803 l 457 635 l 707 635 l 707 697 b 386 1011 707 889 619 1011 b 32 496 118 1011 32 875 b 335 -17 32 151 88 1 z "},"É":{"ha":694,"x_min":0,"x_max":0,"o":"m 61 0 l 661 0 l 661 211 l 319 211 l 319 408 l 628 408 l 628 611 l 319 611 l 319 781 l 649 781 l 649 992 l 61 992 z m 246 1061 l 407 1061 l 540 1264 l 307 1264 z "},"Ê":{"ha":694,"x_min":0,"x_max":0,"o":"m 61 0 l 661 0 l 661 211 l 319 211 l 319 408 l 628 408 l 628 611 l 319 611 l 319 781 l 649 781 l 649 992 l 61 992 z m 128 1061 l 297 1061 l 347 1172 l 397 1061 l 567 1061 l 481 1264 l 214 1264 z "},"Ë":{"ha":694,"x_min":0,"x_max":0,"o":"m 61 0 l 661 0 l 661 211 l 319 211 l 319 408 l 628 408 l 628 611 l 319 611 l 319 781 l 649 781 l 649 992 l 61 992 z m 128 1057 l 314 1057 l 314 1251 l 128 1251 z m 381 1057 l 567 1057 l 567 1251 l 381 1251 z "},"È":{"ha":694,"x_min":0,"x_max":0,"o":"m 61 0 l 661 0 l 661 211 l 319 211 l 319 408 l 628 408 l 628 611 l 319 611 l 319 781 l 649 781 l 649 992 l 61 992 z m 301 1061 l 463 1061 l 401 1264 l 168 1264 z "},"Í":{"ha":361,"x_min":0,"x_max":0,"o":"m 51 0 l 310 0 l 310 992 l 51 992 z m 71 1061 l 232 1061 l 365 1264 l 132 1264 z "},"Î":{"ha":361,"x_min":0,"x_max":0,"o":"m 51 0 l 310 0 l 310 992 l 51 992 z m -47 1061 l 122 1061 l 172 1172 l 222 1061 l 392 1061 l 306 1264 l 39 1264 z "},"Ï":{"ha":361,"x_min":0,"x_max":0,"o":"m 51 0 l 310 0 l 310 992 l 51 992 z m -47 1057 l 139 1057 l 139 1251 l -47 1251 z m 206 1057 l 392 1057 l 392 1251 l 206 1251 z "},"Ì":{"ha":361,"x_min":0,"x_max":0,"o":"m 51 0 l 310 0 l 310 992 l 51 992 z m 126 1061 l 288 1061 l 226 1264 l -7 1264 z "},"Ñ":{"ha":822,"x_min":0,"x_max":0,"o":"m 61 0 l 303 0 l 303 613 l 306 613 l 478 0 l 761 0 l 761 992 l 519 992 l 519 381 l 517 381 l 350 992 l 61 992 z m 521 1264 b 483 1222 517 1232 503 1222 b 408 1243 464 1222 438 1233 b 318 1264 379 1254 347 1264 b 182 1069 239 1264 199 1196 l 301 1069 b 333 1111 301 1093 314 1111 b 501 1069 374 1111 426 1069 b 640 1264 568 1069 626 1126 z "},"Ó":{"ha":772,"x_min":0,"x_max":0,"o":"m 32 496 b 386 -19 32 125 122 -19 b 740 496 650 -19 740 125 b 386 1011 740 867 650 1011 b 32 496 122 1011 32 867 z m 299 496 b 386 836 299 764 307 836 b 474 496 465 836 474 764 b 386 156 474 228 465 156 b 299 496 307 156 299 228 z m 285 1061 l 446 1061 l 579 1264 l 346 1264 z "},"Ô":{"ha":772,"x_min":0,"x_max":0,"o":"m 32 496 b 386 -19 32 125 122 -19 b 740 496 650 -19 740 125 b 386 1011 740 867 650 1011 b 32 496 122 1011 32 867 z m 299 496 b 386 836 299 764 307 836 b 474 496 465 836 474 764 b 386 156 474 228 465 156 b 299 496 307 156 299 228 z m 167 1061 l 336 1061 l 386 1172 l 436 1061 l 606 1061 l 519 1264 l 253 1264 z "},"Ö":{"ha":772,"x_min":0,"x_max":0,"o":"m 32 496 b 386 -19 32 125 122 -19 b 740 496 650 -19 740 125 b 386 1011 740 867 650 1011 b 32 496 122 1011 32 867 z m 299 496 b 386 836 299 764 307 836 b 474 496 465 836 474 764 b 386 156 474 228 465 156 b 299 496 307 156 299 228 z m 167 1057 l 353 1057 l 353 1251 l 167 1251 z m 419 1057 l 606 1057 l 606 1251 l 419 1251 z "},"Ò":{"ha":772,"x_min":0,"x_max":0,"o":"m 32 496 b 386 -19 32 125 122 -19 b 740 496 650 -19 740 125 b 386 1011 740 867 650 1011 b 32 496 122 1011 32 867 z m 299 496 b 386 836 299 764 307 836 b 474 496 465 836 474 764 b 386 156 474 228 465 156 b 299 496 307 156 299 228 z m 340 1061 l 501 1061 l 440 1264 l 207 1264 z "},"Õ":{"ha":772,"x_min":0,"x_max":0,"o":"m 32 496 b 386 -19 32 125 122 -19 b 740 496 650 -19 740 125 b 386 1011 740 867 650 1011 b 32 496 122 1011 32 867 z m 299 496 b 386 836 299 764 307 836 b 474 496 465 836 474 764 b 386 156 474 228 465 156 b 299 496 307 156 299 228 z m 496 1264 b 458 1222 492 1232 478 1222 b 383 1243 439 1222 413 1233 b 293 1264 354 1254 322 1264 b 157 1069 214 1264 174 1196 l 276 1069 b 308 1111 276 1093 289 1111 b 476 1069 349 1111 401 1069 b 615 1264 543 1069 601 1126 z "},"Š":{"ha":746,"x_min":0,"x_max":0,"o":"m 689 706 b 368 1011 689 918 593 1011 b 43 701 150 1011 43 901 b 449 251 43 350 449 447 b 365 156 449 197 418 156 b 281 271 315 156 281 186 l 281 294 l 31 294 l 31 260 b 364 -19 31 54 150 -19 b 715 286 592 -19 715 75 b 293 749 715 649 293 553 b 374 836 293 793 318 836 b 447 729 424 836 447 788 l 447 706 z m 240 1061 l 507 1061 l 593 1264 l 424 1264 l 374 1153 l 324 1264 l 154 1264 z "},"Ú":{"ha":772,"x_min":0,"x_max":0,"o":"m 50 992 l 50 342 b 386 -19 50 64 169 -19 b 722 342 603 -19 722 64 l 722 992 l 464 992 l 464 276 b 386 156 464 181 435 156 b 308 276 338 156 308 181 l 308 992 z m 276 1061 l 438 1061 l 571 1264 l 338 1264 z "},"Û":{"ha":772,"x_min":0,"x_max":0,"o":"m 50 992 l 50 342 b 386 -19 50 64 169 -19 b 722 342 603 -19 722 64 l 722 992 l 464 992 l 464 276 b 386 156 464 181 435 156 b 308 276 338 156 308 181 l 308 992 z m 158 1061 l 328 1061 l 378 1172 l 428 1061 l 597 1061 l 511 1264 l 244 1264 z "},"Ü":{"ha":772,"x_min":0,"x_max":0,"o":"m 50 992 l 50 342 b 386 -19 50 64 169 -19 b 722 342 603 -19 722 64 l 722 992 l 464 992 l 464 276 b 386 156 464 181 435 156 b 308 276 338 156 308 181 l 308 992 z m 158 1057 l 344 1057 l 344 1251 l 158 1251 z m 411 1057 l 597 1057 l 597 1251 l 411 1251 z "},"Ù":{"ha":772,"x_min":0,"x_max":0,"o":"m 50 992 l 50 342 b 386 -19 50 64 169 -19 b 722 342 603 -19 722 64 l 722 992 l 464 992 l 464 276 b 386 156 464 181 435 156 b 308 276 338 156 308 181 l 308 992 z m 332 1061 l 493 1061 l 432 1264 l 199 1264 z "},"Ý":{"ha":722,"x_min":0,"x_max":0,"o":"m 232 0 l 490 0 l 490 390 l 743 992 l 460 992 l 363 646 l 360 646 l 263 992 l -21 992 l 232 390 z m 260 1061 l 421 1061 l 554 1264 l 321 1264 z "},"Ÿ":{"ha":722,"x_min":0,"x_max":0,"o":"m 232 0 l 490 0 l 490 390 l 743 992 l 460 992 l 363 646 l 360 646 l 263 992 l -21 992 l 232 390 z m 142 1057 l 328 1057 l 328 1251 l 142 1251 z m 394 1057 l 581 1057 l 581 1251 l 394 1251 z "},"Ž":{"ha":668,"x_min":0,"x_max":0,"o":"m 28 0 l 640 0 l 640 211 l 324 211 l 640 806 l 640 992 l 49 992 l 49 781 l 339 781 l 28 186 z m 201 1061 l 468 1061 l 554 1264 l 385 1264 l 335 1153 l 285 1264 l 115 1264 z "},"á":{"ha":694,"x_min":0,"x_max":0,"o":"m 657 0 b 633 163 636 39 633 93 l 633 529 b 336 771 633 725 511 771 b 49 518 222 771 49 733 l 265 518 b 336 618 267 597 289 618 b 400 549 379 618 400 594 b 326 467 400 503 381 479 l 228 443 b 19 201 68 406 19 340 b 228 -19 19 72 78 -19 b 397 85 303 -19 369 18 l 400 85 b 415 0 404 54 407 26 z m 322 149 b 261 231 285 149 261 181 b 313 328 261 281 274 310 b 397 363 349 344 383 343 l 400 363 l 400 272 b 322 149 400 190 378 149 z m 246 821 l 407 821 l 540 1024 l 307 1024 z "},"â":{"ha":694,"x_min":0,"x_max":0,"o":"m 657 0 b 633 163 636 39 633 93 l 633 529 b 336 771 633 725 511 771 b 49 518 222 771 49 733 l 265 518 b 336 618 267 597 289 618 b 400 549 379 618 400 594 b 326 467 400 503 381 479 l 228 443 b 19 201 68 406 19 340 b 228 -19 19 72 78 -19 b 397 85 303 -19 369 18 l 400 85 b 415 0 404 54 407 26 z m 322 149 b 261 231 285 149 261 181 b 313 328 261 281 274 310 b 397 363 349 344 383 343 l 400 363 l 400 272 b 322 149 400 190 378 149 z m 128 821 l 297 821 l 347 932 l 397 821 l 567 821 l 481 1024 l 214 1024 z "},"ä":{"ha":694,"x_min":0,"x_max":0,"o":"m 657 0 b 633 163 636 39 633 93 l 633 529 b 336 771 633 725 511 771 b 49 518 222 771 49 733 l 265 518 b 336 618 267 597 289 618 b 400 549 379 618 400 594 b 326 467 400 503 381 479 l 228 443 b 19 201 68 406 19 340 b 228 -19 19 72 78 -19 b 397 85 303 -19 369 18 l 400 85 b 415 0 404 54 407 26 z m 322 149 b 261 231 285 149 261 181 b 313 328 261 281 274 310 b 397 363 349 344 383 343 l 400 363 l 400 272 b 322 149 400 190 378 149 z m 128 817 l 314 817 l 314 1011 l 128 1011 z m 381 817 l 567 817 l 567 1011 l 381 1011 z "},"à":{"ha":694,"x_min":0,"x_max":0,"o":"m 657 0 b 633 163 636 39 633 93 l 633 529 b 336 771 633 725 511 771 b 49 518 222 771 49 733 l 265 518 b 336 618 267 597 289 618 b 400 549 379 618 400 594 b 326 467 400 503 381 479 l 228 443 b 19 201 68 406 19 340 b 228 -19 19 72 78 -19 b 397 85 303 -19 369 18 l 400 85 b 415 0 404 54 407 26 z m 322 149 b 261 231 285 149 261 181 b 313 328 261 281 274 310 b 397 363 349 344 383 343 l 400 363 l 400 272 b 322 149 400 190 378 149 z m 301 821 l 463 821 l 401 1024 l 168 1024 z "},"å":{"ha":694,"x_min":0,"x_max":0,"o":"m 657 0 b 633 163 636 39 633 93 l 633 529 b 336 771 633 725 511 771 b 49 518 222 771 49 733 l 265 518 b 336 618 267 597 289 618 b 400 549 379 618 400 594 b 326 467 400 503 381 479 l 228 443 b 19 201 68 406 19 340 b 228 -19 19 72 78 -19 b 397 85 303 -19 369 18 l 400 85 b 415 0 404 54 407 26 z m 322 149 b 261 231 285 149 261 181 b 313 328 261 281 274 310 b 397 363 349 344 383 343 l 400 363 l 400 272 b 322 149 400 190 378 149 z m 193 976 b 347 822 193 892 263 822 b 501 976 432 822 501 892 b 347 1131 501 1061 432 1131 b 193 976 263 1131 193 1061 z m 285 976 b 347 1039 285 1011 313 1039 b 410 976 382 1039 410 1011 b 347 914 410 942 382 914 b 285 976 313 914 285 942 z "},"ã":{"ha":694,"x_min":0,"x_max":0,"o":"m 657 0 b 633 163 636 39 633 93 l 633 529 b 336 771 633 725 511 771 b 49 518 222 771 49 733 l 265 518 b 336 618 267 597 289 618 b 400 549 379 618 400 594 b 326 467 400 503 381 479 l 228 443 b 19 201 68 406 19 340 b 228 -19 19 72 78 -19 b 397 85 303 -19 369 18 l 400 85 b 415 0 404 54 407 26 z m 322 149 b 261 231 285 149 261 181 b 313 328 261 281 274 310 b 397 363 349 344 383 343 l 400 363 l 400 272 b 322 149 400 190 378 149 z m 457 1024 b 419 982 453 992 439 982 b 344 1003 400 982 374 993 b 254 1024 315 1014 283 1024 b 118 829 175 1024 135 956 l 238 829 b 269 871 238 853 250 871 b 438 829 310 871 363 829 b 576 1024 504 829 563 886 z "},"ç":{"ha":668,"x_min":0,"x_max":0,"o":"m 256 -125 l 290 -154 b 331 -144 303 -149 315 -144 b 388 -189 354 -144 388 -153 b 318 -236 388 -215 361 -236 b 224 -214 286 -236 254 -228 l 193 -292 b 351 -319 236 -308 299 -319 b 532 -182 460 -319 532 -274 b 404 -72 532 -107 471 -72 b 364 -79 389 -72 375 -75 l 396 -18 b 582 60 478 -11 540 14 b 649 314 631 114 649 196 l 424 314 l 424 265 b 351 142 424 171 397 142 b 278 375 294 142 278 190 b 351 610 278 560 294 610 b 407 578 378 610 396 601 b 424 457 418 554 424 518 l 649 457 b 364 771 649 644 586 771 b 28 363 176 771 28 718 b 313 -19 28 61 142 -10 z "},"é":{"ha":668,"x_min":0,"x_max":0,"o":"m 649 333 l 649 410 b 347 771 649 682 547 771 b 28 375 122 771 28 663 b 347 -19 28 89 106 -19 b 642 264 554 -19 639 82 l 417 264 b 346 133 417 161 390 133 b 278 235 311 133 278 154 l 278 333 z m 415 469 l 278 469 l 278 503 b 346 618 278 582 294 618 b 415 503 399 618 415 582 z m 233 821 l 394 821 l 528 1024 l 294 1024 z "},"ê":{"ha":668,"x_min":0,"x_max":0,"o":"m 649 333 l 649 410 b 347 771 649 682 547 771 b 28 375 122 771 28 663 b 347 -19 28 89 106 -19 b 642 264 554 -19 639 82 l 417 264 b 346 133 417 161 390 133 b 278 235 311 133 278 154 l 278 333 z m 415 469 l 278 469 l 278 503 b 346 618 278 582 294 618 b 415 503 399 618 415 582 z m 115 821 l 285 821 l 335 932 l 385 821 l 554 821 l 468 1024 l 201 1024 z "},"ë":{"ha":668,"x_min":0,"x_max":0,"o":"m 649 333 l 649 410 b 347 771 649 682 547 771 b 28 375 122 771 28 663 b 347 -19 28 89 106 -19 b 642 264 554 -19 639 82 l 417 264 b 346 133 417 161 390 133 b 278 235 311 133 278 154 l 278 333 z m 415 469 l 278 469 l 278 503 b 346 618 278 582 294 618 b 415 503 399 618 415 582 z m 115 817 l 301 817 l 301 1011 l 115 1011 z m 368 817 l 554 817 l 554 1011 l 368 1011 z "},"è":{"ha":668,"x_min":0,"x_max":0,"o":"m 649 333 l 649 410 b 347 771 649 682 547 771 b 28 375 122 771 28 663 b 347 -19 28 89 106 -19 b 642 264 554 -19 639 82 l 417 264 b 346 133 417 161 390 133 b 278 235 311 133 278 154 l 278 333 z m 415 469 l 278 469 l 278 503 b 346 618 278 582 294 618 b 415 503 399 618 415 582 z m 289 821 l 450 821 l 389 1024 l 156 1024 z "},"í":{"ha":358,"x_min":0,"x_max":0,"o":"m 54 0 l 304 0 l 304 751 l 54 751 z m 69 821 l 231 821 l 364 1024 l 131 1024 z "},"î":{"ha":358,"x_min":0,"x_max":0,"o":"m 54 0 l 304 0 l 304 751 l 54 751 z m -49 821 l 121 821 l 171 932 l 221 821 l 390 821 l 304 1024 l 38 1024 z "},"ï":{"ha":358,"x_min":0,"x_max":0,"o":"m 54 0 l 304 0 l 304 751 l 54 751 z m -49 817 l 138 817 l 138 1011 l -49 1011 z m 204 817 l 390 817 l 390 1011 l 204 1011 z "},"ì":{"ha":358,"x_min":0,"x_max":0,"o":"m 54 0 l 304 0 l 304 751 l 54 751 z m 125 821 l 286 821 l 225 1024 l -8 1024 z "},"ñ":{"ha":722,"x_min":0,"x_max":0,"o":"m 50 0 l 300 0 l 300 496 b 361 585 300 558 317 585 b 422 496 406 585 422 558 l 422 0 l 672 0 l 672 567 b 476 771 672 728 586 771 b 294 660 390 771 326 733 l 292 660 l 292 751 l 50 751 z m 471 1024 b 433 982 467 992 453 982 b 358 1003 414 982 388 993 b 268 1024 329 1014 297 1024 b 132 829 189 1024 149 956 l 251 829 b 283 871 251 853 264 871 b 451 829 324 871 376 829 b 590 1024 518 829 576 886 z "},"ó":{"ha":694,"x_min":0,"x_max":0,"o":"m 667 375 b 347 771 667 592 640 771 b 28 376 65 771 28 574 b 347 -19 28 160 54 -19 b 667 375 629 -19 667 178 z m 278 375 b 347 610 278 565 292 610 b 417 375 404 610 417 565 b 347 142 417 186 404 142 b 278 375 292 142 278 186 z m 246 821 l 407 821 l 540 1024 l 307 1024 z "},"ô":{"ha":694,"x_min":0,"x_max":0,"o":"m 667 375 b 347 771 667 592 640 771 b 28 376 65 771 28 574 b 347 -19 28 160 54 -19 b 667 375 629 -19 667 178 z m 278 375 b 347 610 278 565 292 610 b 417 375 404 610 417 565 b 347 142 417 186 404 142 b 278 375 292 142 278 186 z m 128 821 l 297 821 l 347 932 l 397 821 l 567 821 l 481 1024 l 214 1024 z "},"ö":{"ha":694,"x_min":0,"x_max":0,"o":"m 667 375 b 347 771 667 592 640 771 b 28 376 65 771 28 574 b 347 -19 28 160 54 -19 b 667 375 629 -19 667 178 z m 278 375 b 347 610 278 565 292 610 b 417 375 404 610 417 565 b 347 142 417 186 404 142 b 278 375 292 142 278 186 z m 128 817 l 314 817 l 314 1011 l 128 1011 z m 381 817 l 567 817 l 567 1011 l 381 1011 z "},"ò":{"ha":694,"x_min":0,"x_max":0,"o":"m 667 375 b 347 771 667 592 640 771 b 28 376 65 771 28 574 b 347 -19 28 160 54 -19 b 667 375 629 -19 667 178 z m 278 375 b 347 610 278 565 292 610 b 417 375 404 610 417 565 b 347 142 417 186 404 142 b 278 375 292 142 278 186 z m 301 821 l 463 821 l 401 1024 l 168 1024 z "},"õ":{"ha":694,"x_min":0,"x_max":0,"o":"m 667 375 b 347 771 667 592 640 771 b 28 376 65 771 28 574 b 347 -19 28 160 54 -19 b 667 375 629 -19 667 178 z m 278 375 b 347 610 278 565 292 610 b 417 375 404 610 417 565 b 347 142 417 186 404 142 b 278 375 292 142 278 186 z m 457 1024 b 419 982 453 992 439 982 b 344 1003 400 982 374 993 b 254 1024 315 1014 283 1024 b 118 829 175 1024 135 956 l 238 829 b 269 871 238 853 250 871 b 438 829 310 871 363 829 b 576 1024 504 829 563 886 z "},"š":{"ha":643,"x_min":0,"x_max":0,"o":"m 24 233 b 318 -19 24 69 108 -19 b 619 232 507 -19 619 86 b 257 560 619 519 257 436 b 321 618 257 596 283 618 b 388 535 363 618 388 599 l 604 535 b 322 771 604 692 510 771 b 24 536 119 771 24 668 b 386 197 24 251 386 331 b 314 133 386 157 353 133 b 261 160 292 133 274 143 b 243 233 249 176 243 204 z m 189 821 l 456 821 l 542 1024 l 372 1024 l 322 913 l 272 1024 l 103 1024 z "},"ú":{"ha":722,"x_min":0,"x_max":0,"o":"m 50 185 b 246 -19 50 24 136 -19 b 428 92 332 -19 396 18 l 431 92 l 431 0 l 672 0 l 672 751 l 422 751 l 422 256 b 361 167 422 193 406 167 b 300 256 317 167 300 193 l 300 751 l 50 751 z m 260 821 l 421 821 l 554 1024 l 321 1024 z "},"û":{"ha":722,"x_min":0,"x_max":0,"o":"m 50 185 b 246 -19 50 24 136 -19 b 428 92 332 -19 396 18 l 431 92 l 431 0 l 672 0 l 672 751 l 422 751 l 422 256 b 361 167 422 193 406 167 b 300 256 317 167 300 193 l 300 751 l 50 751 z m 142 821 l 311 821 l 361 932 l 411 821 l 581 821 l 494 1024 l 228 1024 z "},"ü":{"ha":722,"x_min":0,"x_max":0,"o":"m 50 185 b 246 -19 50 24 136 -19 b 428 92 332 -19 396 18 l 431 92 l 431 0 l 672 0 l 672 751 l 422 751 l 422 256 b 361 167 422 193 406 167 b 300 256 317 167 300 193 l 300 751 l 50 751 z m 142 817 l 328 817 l 328 1011 l 142 1011 z m 394 817 l 581 817 l 581 1011 l 394 1011 z "},"ù":{"ha":722,"x_min":0,"x_max":0,"o":"m 50 185 b 246 -19 50 24 136 -19 b 428 92 332 -19 396 18 l 431 92 l 431 0 l 672 0 l 672 751 l 422 751 l 422 256 b 361 167 422 193 406 167 b 300 256 317 167 300 193 l 300 751 l 50 751 z m 315 821 l 476 821 l 415 1024 l 182 1024 z "},"ý":{"ha":643,"x_min":0,"x_max":0,"o":"m 69 -239 b 210 -244 111 -243 157 -244 b 457 -25 344 -244 413 -197 l 658 751 l 408 751 l 336 244 l 333 244 l 257 751 l -1 751 l 197 43 b 208 -12 203 24 208 -1 b 125 -69 208 -28 188 -69 b 69 -64 107 -69 88 -68 z m 221 821 l 382 821 l 515 1024 l 282 1024 z "},"ÿ":{"ha":643,"x_min":0,"x_max":0,"o":"m 69 -239 b 210 -244 111 -243 157 -244 b 457 -25 344 -244 413 -197 l 658 751 l 408 751 l 336 244 l 333 244 l 257 751 l -1 751 l 197 43 b 208 -12 203 24 208 -1 b 125 -69 208 -28 188 -69 b 69 -64 107 -69 88 -68 z m 103 817 l 289 817 l 289 1011 l 103 1011 z m 356 817 l 542 817 l 542 1011 l 356 1011 z "},"ž":{"ha":617,"x_min":0,"x_max":0,"o":"m 32 557 l 289 557 l 19 194 l 19 0 l 597 0 l 597 194 l 310 194 l 590 565 l 590 751 l 32 751 z m 175 821 l 442 821 l 528 1024 l 358 1024 l 308 913 l 258 1024 l 89 1024 z "},"€":{"ha":722,"x_min":0,"x_max":0,"o":"m 661 936 b 468 983 635 957 565 983 b 121 639 254 983 153 851 l 61 639 l 21 514 l 111 514 b 110 479 111 503 110 492 b 111 439 110 463 111 450 l 61 439 l 21 314 l 124 314 b 468 -18 156 89 268 -18 b 661 25 572 -18 635 6 l 661 217 b 511 167 635 189 581 167 b 351 314 417 167 365 214 l 514 314 l 554 439 l 336 439 b 335 479 336 450 335 465 b 336 514 335 492 336 504 l 581 514 l 621 639 l 347 639 b 510 799 364 743 413 799 b 661 742 588 799 636 772 z "}}}
